<?xml version="1.0" encoding="utf-8"?>
<!-- Generator: Adobe Illustrator 23.0.1, SVG Export Plug-In . SVG Version: 6.00 Build 0)  -->
<svg version="1.1" id="Capa_1" xmlns="http://www.w3.org/2000/svg" xmlns:xlink="http://www.w3.org/1999/xlink" x="0px" y="0px"
	 viewBox="0 0 512 512" style="enable-background:new 0 0 512 512;" xml:space="preserve">
<style type="text/css">
	.st0{fill:#C2C6C2;}
	.st1{fill:#0C0C0B;}
	.st2{font-family:'SacramentoProSlim-Regular';}
	.st3{font-size:526.0186px;}
	.st4{fill:#7D1C3E;}
</style>
<path class="st0" d="M349.9,270.3C378,251.1,458,191.6,458.7,136.3c0.6-44-22.5-82.8-57.5-104.3l-4.1,15.2
	c17.9,12.1,47.1,53.8,46.6,88.9c-0.7,48.9-79.9,106.5-104.3,126l-2.1,7.9l12.7,0.3C350,270.3,349.9,270.3,349.9,270.3z"/>
<path class="st0" d="M209,385c-5.5,43.6,13.1,84.7,45.3,110l5.8-14.7c-26.1-22.3-40.9-56.9-36.2-93.4
	c6.1-48.4,90.8-96.6,117.1-110.5l4.1-10.3l-14-1.5C285.9,288.7,217.1,321.4,209,385z"/>
<text transform="matrix(0.5754 -0.6499 0.7557 0.6549 240.1825 624.8671)" class="st1 st2 st3">T</text>
<path class="st4" d="M343.7,265.4c-0.4-0.2-0.7-0.5-1-0.8c0,0,0,0,0,0l0,0c-0.6-0.5-1.1-1.1-1.8-1.5c-0.1-0.1-0.2-0.2-0.3-0.3
	c-20.1-13.8-105.3-75.4-105.3-126.4C235.3,78.3,282.6,31,340.7,31c21.2,0,41,6.3,57.6,17.2l3.9-15.3c-18-10.8-39.1-16.9-61.5-16.9
	c-66.4,0-120.5,54-120.5,120.5c0,48.6,61,101.2,94.8,126.6l0,0c0.5,0.4,1,0.8,1.5,1.3c0,0,0,0,0.1,0c0.2,0.2,0.4,0.4,0.6,0.6
	c2.6,1.8,6.1,4.2,10.2,7.3c0,0,0,0,0,0c0.3,0.1,0.5,0.3,0.7,0.5c0,0,0.1,0.1,0.1,0.1c30.4,22.3,93.6,74.1,93.6,118.1
	c0,58.1-47.3,105.4-105.4,105.4c-21.3,0-41.1-6.4-57.7-17.3l-3.9,15.3c18.1,10.8,39.1,17,61.7,17c66.4,0,120.5-54,120.5-120.5
	C436.9,343,377.7,291.2,343.7,265.4z"/>
</svg>
